<?xml version="1.0" encoding="utf-8"?>
<!-- Generator: Adobe Illustrator 15.1.0, SVG Export Plug-In . SVG Version: 6.00 Build 0)  -->
<svg version="1.2" baseProfile="tiny" id="Layer_1" xmlns="http://www.w3.org/2000/svg" xmlns:xlink="http://www.w3.org/1999/xlink"
	 x="0px" y="0px" width="511.92px" height="594px" viewBox="0 0 511.92 594" overflow="inherit" xml:space="preserve">
<text transform="matrix(1 0 0 1 81.3096 253.0747)" font-family="'MyriadPro-Regular'" font-size="24">T</text>
<text transform="matrix(1 0 0 1 93.0698 253.0747)" font-family="'MyriadPro-Regular'" font-size="24">h</text>
<text transform="matrix(1 0 0 1 106.3896 253.0747)" font-family="'MyriadPro-Regular'" font-size="24">i</text>
<text transform="matrix(1 0 0 1 112.0054 253.0747)" font-family="'MyriadPro-Regular'" font-size="24">s</text>
<text transform="matrix(1 0 0 1 121.5093 253.0747)" font-family="'MyriadPro-Regular'" font-size="24"> </text>
<text transform="matrix(1 0 0 1 126.5972 253.0747)" font-family="'MyriadPro-Regular'" font-size="24">i</text>
<text transform="matrix(1 0 0 1 132.2129 253.0747)" font-family="'MyriadPro-Regular'" font-size="24">s</text>
<text transform="matrix(1 0 0 1 141.7168 253.0747)" font-family="'MyriadPro-Regular'" font-size="24"> </text>
<text transform="matrix(1 0 0 1 146.8047 253.0747)" font-family="'MyriadPro-Regular'" font-size="24">a</text>
<text transform="matrix(1 0 0 1 158.3726 253.0747)" font-family="'MyriadPro-Regular'" font-size="24"> </text>
<text transform="matrix(1 0 0 1 163.4604 253.0747)" font-family="'MyriadPro-Regular'" font-size="24">s</text>
<text transform="matrix(1 0 0 1 172.9644 253.0747)" font-family="'MyriadPro-Regular'" font-size="24">k</text>
<text transform="matrix(1 0 0 1 184.2202 253.0747)" font-family="'MyriadPro-Regular'" font-size="24">e</text>
<text transform="matrix(1 0 0 1 196.2437 253.0747)" font-family="'MyriadPro-Regular'" font-size="24">t</text>
<text transform="matrix(1 0 0 1 204.0435 253.0747)" font-family="'MyriadPro-Regular'" font-size="24">c</text>
<text transform="matrix(1 0 0 1 214.7954 253.0747)" font-family="'MyriadPro-Regular'" font-size="24">h</text>
<text transform="matrix(1 0 0 1 228.1157 253.0747)" font-family="'MyriadPro-Regular'" font-size="24"> </text>
<text transform="matrix(1 0 0 1 233.2031 253.0747)" font-family="'MyriadPro-Regular'" font-size="24">o</text>
<text transform="matrix(1 0 0 1 246.3794 253.0747)" font-family="'MyriadPro-Regular'" font-size="24">f</text>
<text transform="matrix(1 0 0 1 253.3872 253.0747)" font-family="'MyriadPro-Regular'" font-size="24"> </text>
<text transform="matrix(1 0 0 1 258.4746 253.0747)" font-family="'MyriadPro-Regular'" font-size="24">a</text>
<text transform="matrix(1 0 0 1 270.042 253.0747)" font-family="'MyriadPro-Regular'" font-size="24"> </text>
<text transform="matrix(1 0 0 1 275.1299 253.0747)" font-family="'MyriadPro-Regular'" font-size="24">r</text>
<text transform="matrix(1 0 0 1 282.7383 253.0747)" font-family="'MyriadPro-Regular'" font-size="24">o</text>
<text transform="matrix(1 0 0 1 295.9141 253.0747)" font-family="'MyriadPro-Regular'" font-size="24">t</text>
<text transform="matrix(1 0 0 1 303.7139 253.0747)" font-family="'MyriadPro-Regular'" font-size="24">o</text>
<text transform="matrix(1 0 0 1 316.8896 253.0747)" font-family="'MyriadPro-Regular'" font-size="24"> </text>
<text transform="matrix(1 0 0 1 321.9775 253.0747)" font-family="'MyriadPro-Regular'" font-size="24">f</text>
<text transform="matrix(1 0 0 1 328.6738 253.0747)" font-family="'MyriadPro-Regular'" font-size="24">o</text>
<text transform="matrix(1 0 0 1 341.8496 253.0747)" font-family="'MyriadPro-Regular'" font-size="24">r</text>
<text transform="matrix(1 0 0 1 349.793 253.0747)" font-family="'MyriadPro-Regular'" font-size="24">m</text>
<text transform="matrix(1 0 0 1 369.8096 253.0747)" font-family="'MyriadPro-Regular'" font-size="24">i</text>
<text transform="matrix(1 0 0 1 375.4248 253.0747)" font-family="'MyriadPro-Regular'" font-size="24">n</text>
<text transform="matrix(1 0 0 1 388.7451 253.0747)" font-family="'MyriadPro-Regular'" font-size="24">g</text>
<text transform="matrix(1 0 0 1 402.1611 253.0747)" font-family="'MyriadPro-Regular'" font-size="24"> </text>
<text transform="matrix(1 0 0 1 407.248 253.0747)" font-family="'MyriadPro-Regular'" font-size="24">j</text>
<text transform="matrix(1 0 0 1 413.0801 253.0747)" font-family="'MyriadPro-Regular'" font-size="24">i</text>
<text transform="matrix(1 0 0 1 418.6963 253.0747)" font-family="'MyriadPro-Regular'" font-size="24">g</text>
<text transform="matrix(1 0 0 1 432.1123 253.0747)" font-family="'MyriadPro-Regular'" font-size="24"> </text>
<text transform="matrix(1 0 0 1 437.2002 253.0747)" font-family="'MyriadPro-Regular'" font-size="24">f</text>
<text transform="matrix(1 0 0 1 443.8965 253.0747)" font-family="'MyriadPro-Regular'" font-size="24">o</text>
<text transform="matrix(1 0 0 1 457.0723 253.0747)" font-family="'MyriadPro-Regular'" font-size="24">r</text>
<text transform="matrix(1 0 0 1 464.9199 253.0747)" font-family="'MyriadPro-Regular'" font-size="24"> </text>
<text transform="matrix(1 0 0 1 81.3096 281.8745)" font-family="'MyriadPro-Regular'" font-size="24">c</text>
<text transform="matrix(1 0 0 1 92.0615 281.8745)" font-family="'MyriadPro-Regular'" font-size="24">a</text>
<text transform="matrix(1 0 0 1 103.6294 281.8745)" font-family="'MyriadPro-Regular'" font-size="24">s</text>
<text transform="matrix(1 0 0 1 113.1333 281.8745)" font-family="'MyriadPro-Regular'" font-size="24">t</text>
<text transform="matrix(1 0 0 1 121.0771 281.8745)" font-family="'MyriadPro-Regular'" font-size="24">i</text>
<text transform="matrix(1 0 0 1 126.6929 281.8745)" font-family="'MyriadPro-Regular'" font-size="24">n</text>
<text transform="matrix(1 0 0 1 140.0127 281.8745)" font-family="'MyriadPro-Regular'" font-size="24">g</text>
<text transform="matrix(1 0 0 1 153.4287 281.8745)" font-family="'MyriadPro-Regular'" font-size="24"> </text>
<text transform="matrix(1 0 0 1 158.5161 281.8745)" font-family="'MyriadPro-Regular'" font-size="24">w</text>
<text transform="matrix(1 0 0 1 176.1802 281.8745)" font-family="'MyriadPro-Regular'" font-size="24">i</text>
<text transform="matrix(1 0 0 1 181.7959 281.8745)" font-family="'MyriadPro-Regular'" font-size="24">t</text>
<text transform="matrix(1 0 0 1 189.7397 281.8745)" font-family="'MyriadPro-Regular'" font-size="24">h</text>
<text transform="matrix(1 0 0 1 203.0596 281.8745)" font-family="'MyriadPro-Regular'" font-size="24"> </text>
<text transform="matrix(1 0 0 1 208.1475 281.8745)" font-family="'MyriadPro-Regular'" font-size="24">s</text>
<text transform="matrix(1 0 0 1 217.6514 281.8745)" font-family="'MyriadPro-Regular'" font-size="24">m</text>
<text transform="matrix(1 0 0 1 237.6675 281.8745)" font-family="'MyriadPro-Regular'" font-size="24">a</text>
<text transform="matrix(1 0 0 1 249.2354 281.8745)" font-family="'MyriadPro-Regular'" font-size="24">l</text>
<text transform="matrix(1 0 0 1 254.8989 281.8745)" font-family="'MyriadPro-Regular'" font-size="24">l</text>
<text transform="matrix(1 0 0 1 260.5625 281.8745)" font-family="'MyriadPro-Regular'" font-size="24"> </text>
<text transform="matrix(1 0 0 1 265.6504 281.8745)" font-family="'MyriadPro-Regular'" font-size="24">m</text>
<text transform="matrix(1 0 0 1 285.666 281.8745)" font-family="'MyriadPro-Regular'" font-size="24">o</text>
<text transform="matrix(1 0 0 1 298.8418 281.8745)" font-family="'MyriadPro-Regular'" font-size="24">l</text>
<text transform="matrix(1 0 0 1 304.5059 281.8745)" font-family="'MyriadPro-Regular'" font-size="24">d</text>
<text transform="matrix(1 0 0 1 318.042 281.8745)" font-family="'MyriadPro-Regular'" font-size="24">s</text>
<text transform="matrix(1 0 0 1 327.2822 281.8745)" font-family="'MyriadPro-Regular'" font-size="24">.</text>
<rect fill="none" stroke="#000000" stroke-width="2.2536" stroke-miterlimit="10" width="511.92" height="594"/>
</svg>
